<svg width="53" height="36" viewBox="0 0 53 36" fill="none" xmlns="http://www.w3.org/2000/svg">
<path d="M52.9994 28.2715C52.9994 25.2366 51.8467 23.2157 48.9648 21.0901L45.023 18.2064C44.9501 18.1552 44.8905 18.1017 44.8198 18.0482C43.4308 16.9482 42.8103 15.9273 42.8103 14.7227C42.8103 13.1041 44.0624 12.0947 45.8379 12.0947C48.0947 12.0947 49.1569 13.2041 50.4996 13.2041C51.5574 13.2041 52.2773 12.4459 52.2773 11.3343C52.2773 10.525 51.893 9.86684 50.8838 9.36219C49.2983 8.55289 47.5648 8.24591 45.6943 8.24591C43.7245 8.24591 41.9932 8.85521 40.7455 9.86684C40.4945 10.0724 40.2541 10.2898 40.0256 10.5227L40.0079 10.5459C38.5725 12.1622 37.38 14.532 36.4238 17.8599L35.3175 21.7017C33.3455 28.4738 30.2251 31.711 25.3713 31.711C20.0382 31.711 16.6749 27.8157 16.6749 22.0529C16.6749 16.3134 20.0073 12.3831 24.8236 12.3482L24.8898 12.3436C26.4831 12.3359 28.0583 12.6988 29.503 13.4064C30.1257 13.7087 30.6557 13.811 31.1371 13.811C31.358 13.811 31.5611 13.7715 31.7533 13.7157C32.5527 13.4761 33.0606 12.7668 33.0606 11.7854C33.0606 11.0273 32.6278 10.2668 31.6186 9.76219C29.7923 8.7994 27.436 8.24359 24.8921 8.24359C22.9929 8.24359 21.2417 8.59707 19.6827 9.25754C15.0077 11.2366 12.0596 15.9692 12.0596 22.1529C12.0596 24.318 12.435 26.2994 13.1196 28.0506C12.1214 30.3413 10.5955 31.5599 8.60136 31.5599C6.20093 31.5599 4.61757 30.0948 4.61316 26.7692V12.4924H10.2355C11.534 12.4924 12.3974 11.6831 12.3974 10.5203C12.3974 9.35754 11.5362 8.54824 10.2333 8.54824H4.61536V3.3901C4.61536 1.87149 3.65475 0.859863 2.30989 0.859863C0.960614 0.859863 0 1.87382 0 3.3901V27.3087C0 32.8738 3.02538 35.8087 8.17074 35.8087C9.24398 35.811 10.3128 35.6227 11.3286 35.2506H11.3397C13.0189 34.5996 14.4315 33.3551 15.3367 31.7296C17.6201 34.3273 21.001 35.8575 25.2299 35.8575C27.436 35.8575 29.355 35.4041 31.0819 34.4459H31.0886C34.5954 32.5227 37.0952 28.6273 38.8243 22.6599L39.8335 19.1715C39.7061 18.9962 39.5867 18.8146 39.4757 18.6273C40.1559 19.7715 41.2092 20.8436 42.7175 21.9529L46.3193 24.5808C46.8581 24.9761 47.3417 25.3715 47.7944 25.7668C48.4326 26.5157 48.6292 27.325 48.6292 28.2738C48.6292 30.4482 46.995 31.9157 44.6387 31.9157C42.3819 31.9157 40.4584 30.7017 39.4028 30.7017C38.3473 30.7017 37.6229 31.4575 37.6229 32.5715C37.6229 33.3808 38.0072 34.0366 39.0186 34.5436C40.412 35.2506 42.6689 35.8599 44.6873 35.8599C47.2335 35.8599 49.3491 35.0506 50.8375 33.6343C50.9589 33.5164 51.0739 33.3914 51.182 33.2599C52.3721 31.9036 53.0226 30.118 52.9994 28.2715Z" fill="white"/>
</svg>
